<?xml version="1.0" standalone="no"?>
<!DOCTYPE svg PUBLIC "-//W3C//DTD SVG 20010904//EN"
 "http://www.w3.org/TR/2001/REC-SVG-20010904/DTD/svg10.dtd">
<svg version="1.0" xmlns="http://www.w3.org/2000/svg"
 width="1345.000000pt" height="873.000000pt" viewBox="0 0 1345.000000 873.000000"
 preserveAspectRatio="xMidYMid meet">

<g transform="translate(0.000000,873.000000) scale(0.100000,-0.100000)"
fill="#000000" stroke="none">
<path d="M4651 7844 c-16 -12 -22 -23 -18 -40 4 -21 0 -24 -24 -24 -37 0 -71
-33 -61 -59 4 -10 63 -81 132 -156 69 -76 126 -146 128 -156 3 -15 -11 -11
-91 26 -52 25 -108 48 -126 51 -29 6 -31 5 -31 -22 0 -16 4 -34 8 -40 4 -6 54
-45 112 -86 58 -42 124 -99 148 -127 92 -109 260 -210 349 -211 19 0 28 -17
72 -152 58 -179 125 -401 175 -580 19 -70 67 -208 105 -307 76 -194 75 -189
230 -1013 57 -297 92 -411 216 -703 40 -93 101 -258 135 -365 63 -196 98 -279
152 -358 44 -65 64 -116 92 -242 29 -136 52 -310 66 -508 8 -118 8 -148 -4
-170 -18 -35 -180 -251 -307 -408 -97 -121 -98 -122 -181 -157 -123 -53 -198
-84 -585 -248 -194 -82 -411 -176 -482 -209 -186 -86 -267 -104 -466 -105
-182 0 -247 12 -410 74 -129 49 -206 68 -335 82 -189 20 -472 -9 -705 -71
-231 -62 -462 -98 -670 -106 l-140 -6 -53 41 c-98 74 -194 80 -284 18 -29 -21
-74 -55 -100 -76 -79 -65 -218 -107 -392 -117 -118 -6 -201 -28 -251 -64 -22
-16 -56 -38 -76 -49 -48 -27 -54 -35 -84 -126 -24 -74 -25 -85 -14 -148 6 -37
8 -78 5 -90 l-5 -22 369 2 c297 1 386 5 452 18 71 14 197 47 633 168 138 37
588 32 1045 -14 346 -34 488 -52 515 -66 16 -8 54 -33 83 -55 88 -65 125 -67
537 -28 110 11 297 26 415 35 489 36 638 54 778 91 178 46 405 112 626 182
l181 56 335 1 c405 0 1308 50 1645 90 172 21 435 50 780 86 254 27 345 32 595
34 385 3 456 13 940 126 309 73 433 99 470 99 33 0 70 -40 70 -75 0 -21 7 -24
71 -35 99 -17 177 -10 218 20 19 12 55 57 81 99 73 116 85 126 164 140 37 7
131 16 209 21 400 27 431 33 488 96 52 58 40 84 -37 84 -27 0 -59 14 -123 54
-47 29 -91 56 -98 60 -7 4 -144 11 -305 16 -284 10 -381 6 -608 -19 -96 -11
-664 -36 -1155 -51 -181 -6 -578 -10 -880 -10 l-551 0 -144 32 c-143 31 -150
31 -505 37 l-360 6 -3 26 c-2 15 6 85 18 155 12 77 23 202 27 309 5 162 -7
806 -24 1252 l-6 171 79 6 c100 7 669 81 832 107 118 20 127 20 260 3 166 -20
625 -25 747 -7 155 23 225 26 225 12 0 -50 26 -91 109 -176 84 -86 89 -94 95
-145 8 -63 38 -118 64 -118 33 0 52 32 52 87 0 28 3 64 6 81 l6 31 112 -113
c107 -109 172 -158 233 -175 15 -4 34 -6 41 -4 14 5 16 42 3 75 -9 23 -332
397 -502 580 -64 70 -105 104 -144 124 -55 26 -59 27 -273 28 -206 2 -221 4
-302 29 -47 15 -128 39 -180 54 l-95 27 -555 2 c-305 2 -566 6 -580 9 -14 4
-76 29 -139 57 -113 50 -116 50 -190 45 -42 -3 -151 -20 -242 -37 -256 -50
-269 -44 -269 124 l0 112 46 22 c61 30 82 79 91 206 l6 96 27 0 c38 0 50 18
60 89 5 34 18 77 30 96 17 27 20 47 18 102 -2 44 -7 67 -14 66 -8 -2 -13 30
-16 95 -5 111 -25 176 -90 291 -52 92 -173 219 -244 254 -111 56 -267 73 -389
42 -88 -22 -202 -82 -250 -130 -72 -72 -111 -209 -122 -430 l-6 -132 -28 -10
c-43 -16 -52 -52 -34 -129 17 -73 73 -190 104 -219 19 -16 27 -17 51 -8 19 7
32 8 36 2 10 -17 28 -352 20 -390 -9 -51 -27 -44 -123 46 -135 125 -147 151
-218 474 -92 414 -113 477 -386 1113 -102 238 -155 376 -195 510 -30 101 -68
211 -84 245 -36 72 -105 140 -250 244 -67 47 -117 92 -152 137 -153 195 -245
290 -296 306 -17 6 -24 2 -33 -17 l-11 -23 -33 33 c-37 37 -51 40 -84 17z"/>
</g>
</svg>
